# Blender v2.91.0 OBJ File: 'test_boat2.blend'
# www.blender.org
mtllib boat2.mtl
o Cube
v -1.999999 -0.434176 -0.000000
v 2.999997 0.500000 0.000000
v -2.000000 0.500000 1.000000
v -1.999999 0.500000 -1.000000
v 2.868351 -0.000000 0.000000
v -1.999999 -0.000000 0.873209
v -1.999998 0.000000 -0.873210
v 2.052789 -0.342023 -0.000000
v 1.342545 -0.434176 -0.000000
v 0.829772 -0.434176 -0.000000
v 2.052790 0.500000 -0.741627
v 1.342546 0.500000 -0.952081
v 0.829773 0.500000 -1.000000
v 2.052788 0.500000 0.741627
v 1.342544 0.500000 0.952082
v 0.829771 0.500000 1.000000
v 2.052788 -0.000000 0.647596
v 1.342544 -0.000000 0.831367
v 0.829772 -0.000000 0.873209
v 2.052790 0.000000 -0.647595
v 1.342546 0.000000 -0.831367
v 0.829773 0.000000 -0.873210
v 0.829772 -0.434176 -0.000000
v -1.999999 -0.434176 -0.000000
v -1.999999 -0.434176 -0.000000
v 2.868351 -0.000000 0.000000
v 2.868351 -0.000000 0.000000
v 2.868351 -0.000000 0.000000
v 2.999997 0.500000 0.000000
v 2.999997 0.500000 0.000000
v -1.999999 -0.000000 0.873209
v -1.999999 -0.000000 0.873209
v -2.000000 0.500000 1.000000
v -2.000000 0.500000 1.000000
v -1.999998 0.000000 -0.873210
v -1.999998 0.000000 -0.873210
v -1.999999 0.500000 -1.000000
v -1.999999 0.500000 -1.000000
v 0.829773 0.500000 -1.000000
v 0.829771 0.500000 1.000000
v 2.052790 0.000000 -0.647595
v 0.829772 -0.000000 0.873209
v 0.829773 0.000000 -0.873210
v 2.052789 -0.342023 -0.000000
v 1.342545 -0.434176 -0.000000
v 2.052790 0.500000 -0.741627
v 1.342546 0.500000 -0.952081
v 2.052788 0.500000 0.741627
v 1.342544 0.500000 0.952082
v 2.052788 -0.000000 0.647596
v 1.342544 -0.000000 0.831367
v 1.342546 0.000000 -0.831367
vn 0.0000 1.0000 0.0000
vn 0.0448 -0.2456 0.9683
vn 0.0000 -0.2458 0.9693
vn 0.0426 -0.2428 0.9691
vn -1.0000 0.0000 0.0000
vn 0.0058 -0.8924 -0.4512
vn 0.0000 -0.8954 -0.4452
vn 0.0177 -0.8953 -0.4451
vn 0.0177 -0.8953 0.4451
vn 0.0000 -0.8954 0.4452
vn 0.0058 -0.8924 0.4512
vn 0.0448 -0.2456 -0.9683
vn 0.0000 -0.2458 -0.9693
vn 0.6102 -0.1567 0.7766
vn 0.4347 -0.1784 0.8827
vn 0.4497 -0.1651 0.8778
vn 0.1753 -0.2216 0.9592
vn 0.1788 -0.2338 0.9557
vn 0.2231 -0.8620 -0.4552
vn 0.2002 -0.8672 -0.4560
vn 0.3477 -0.8291 -0.4378
vn 0.2001 -0.8672 0.4560
vn 0.0572 -0.8844 0.4631
vn 0.2231 -0.8620 0.4552
vn 0.0675 -0.8878 0.4551
vn 0.4347 -0.1784 -0.8827
vn 0.1753 -0.2216 -0.9592
vn 0.1788 -0.2337 -0.9557
vn 0.0426 -0.2428 -0.9691
vn 0.0572 -0.8844 -0.4631
vn 0.0675 -0.8878 -0.4551
vn 0.3477 -0.8291 0.4378
vn 0.6102 -0.1567 -0.7766
vn 0.6085 -0.1602 -0.7772
vn 0.6085 -0.1602 0.7772
vn 0.4497 -0.1651 -0.8778
usemtl Material
s 1
f 38//1 40//1 39//1
f 16//2 31//3 42//4
f 3//5 35//5 6//5
f 23//6 36//7 43//8
f 19//9 25//10 10//11
f 13//12 7//13 4//13
f 1//5 6//5 35//5
f 47//1 14//1 46//1
f 39//1 49//1 47//1
f 26//14 48//15 50//16
f 48//15 51//17 50//16
f 15//18 42//4 51//17
f 44//19 41//20 27//21
f 17//22 45//23 8//24
f 18//25 10//11 45//23
f 11//26 52//27 12//28
f 12//28 22//29 13//12
f 30//1 46//1 14//1
f 41//20 9//30 21//31
f 21//31 23//6 43//8
f 8//24 5//32 17//22
f 28//33 11//26 2//34
f 38//1 34//1 40//1
f 16//2 33//3 31//3
f 3//5 37//5 35//5
f 23//6 24//7 36//7
f 19//9 32//10 25//10
f 13//12 22//29 7//13
f 47//1 49//1 14//1
f 39//1 40//1 49//1
f 26//14 29//35 48//15
f 48//15 15//18 51//17
f 15//18 16//2 42//4
f 17//22 18//25 45//23
f 18//25 19//9 10//11
f 11//26 20//36 52//27
f 12//28 52//27 22//29
f 41//20 44//19 9//30
f 21//31 9//30 23//6
f 28//33 20//36 11//26
